<svg width="65" height="65" viewBox="0 0 65 65" fill="none" xmlns="http://www.w3.org/2000/svg">
<path fill-rule="evenodd" clip-rule="evenodd" d="M32.5 65C50.4493 65 65 50.4493 65 32.5C65 14.5507 50.4493 0 32.5 0C14.5507 0 0 14.5507 0 32.5C0 50.4493 14.5507 65 32.5 65ZM17.3346 21.0319C17.3346 18.99 18.99 17.3346 21.0319 17.3346C23.0738 17.3346 24.7292 18.99 24.7292 21.0319C24.7292 23.0738 23.0738 24.7292 21.0319 24.7292C18.99 24.7292 17.3346 23.0738 17.3346 21.0319ZM21.0319 15.3346C17.8854 15.3346 15.3346 17.8854 15.3346 21.0319C15.3346 24.1784 17.8854 26.7292 21.0319 26.7292C24.1784 26.7292 26.7292 24.1784 26.7292 21.0319C26.7292 17.8854 24.1784 15.3346 21.0319 15.3346ZM31.2093 20.0319C30.657 20.0319 30.2093 20.4796 30.2093 21.0319C30.2093 21.5842 30.657 22.0319 31.2093 22.0319H31.8895C34.2939 22.0319 36.0334 22.0327 37.2886 22.1357C37.9129 22.1869 38.3724 22.2604 38.7086 22.3556C39.0458 22.4511 39.1972 22.5514 39.2646 22.6152C39.7974 23.1194 40.0335 23.8621 39.8897 24.5814C39.8715 24.6724 39.8058 24.8418 39.5857 25.1144C39.3662 25.3863 39.0335 25.7116 38.5533 26.114C37.5881 26.9228 36.1684 27.928 34.2053 29.3165L27.8412 33.8179L27.7988 33.8479C25.887 35.2002 24.3995 36.2523 23.3636 37.1203C22.8394 37.5596 22.3959 37.9801 22.0597 38.3965C21.7241 38.8121 21.4547 39.2733 21.3506 39.7936C21.0718 41.1879 21.5295 42.6275 22.5623 43.6048C22.9477 43.9695 23.434 44.1905 23.948 44.336C24.4629 44.4818 25.0678 44.569 25.7494 44.6249C27.0963 44.7354 28.9182 44.7354 31.2598 44.7354H31.2601H31.312H32.7751C33.3274 44.7354 33.7751 44.2876 33.7751 43.7354C33.7751 43.1831 33.3274 42.7354 32.7751 42.7354H31.312C28.9076 42.7354 27.1681 42.7345 25.9129 42.6316C25.2886 42.5804 24.8291 42.5069 24.4929 42.4117C24.1557 42.3162 24.0043 42.2158 23.9369 42.1521C23.4041 41.6479 23.1679 40.9051 23.3118 40.1858C23.33 40.0949 23.3957 39.9255 23.6158 39.6528C23.8353 39.381 24.168 39.0556 24.6482 38.6533C25.6134 37.8444 27.0331 36.8392 28.9962 35.4508L35.3603 30.9493L35.4027 30.9193C37.3145 29.567 38.802 28.5149 39.8379 27.6469C40.3621 27.2077 40.8056 26.7872 41.1418 26.3708C41.4773 25.9552 41.7468 25.494 41.8509 24.9736C42.1297 23.5794 41.672 22.1397 40.6392 21.1625C40.2538 20.7977 39.7675 20.5768 39.2535 20.4312C38.7386 20.2854 38.1337 20.1983 37.4521 20.1424C36.1051 20.0319 34.2832 20.0319 31.9414 20.0319H31.8895H31.2093ZM39.2552 42.9525C39.2552 40.9105 40.9105 39.2552 42.9525 39.2552C44.9944 39.2552 46.6497 40.9105 46.6497 42.9525C46.6497 44.9944 44.9944 46.6497 42.9525 46.6497C40.9105 46.6497 39.2552 44.9944 39.2552 42.9525ZM42.9525 37.2552C39.806 37.2552 37.2552 39.806 37.2552 42.9525C37.2552 46.099 39.806 48.6497 42.9525 48.6497C46.099 48.6497 48.6497 46.099 48.6497 42.9525C48.6497 39.806 46.099 37.2552 42.9525 37.2552Z" fill="black"/>
</svg>
